<svg width="133" height="133" viewBox="0 0 133 133" fill="none" xmlns="http://www.w3.org/2000/svg">
<path fill-rule="evenodd" clip-rule="evenodd" d="M43.6337 23.8103L47.4656 22.7155C60.0768 19.1123 73.4139 18.8901 86.1381 22.0712L91.293 23.3599C103.311 26.3644 112.812 35.5542 116.216 47.4655L117.647 52.4761C120.285 61.7068 119.781 71.5521 116.216 80.4655L115.822 81.449C112.878 88.809 105.94 93.7504 98.0925 94.1844L96.9656 94.2155C88.0648 94.2155 79.429 97.2448 72.4786 102.805L69.4656 105.216C61.0005 111.988 49.4948 113.549 39.5307 109.279L36.4656 107.966C24.5433 102.856 16.2267 91.8048 14.6179 78.9339L13.7045 71.6268C12.4159 61.3177 14.6203 50.8743 19.9656 41.9655C25.2665 33.1307 33.7271 26.6408 43.6337 23.8103ZM86.1381 22.0712L91.293 23.3599C103.311 26.3644 112.812 35.5542 116.216 47.4655L117.647 52.4761C117.991 53.6786 118.281 54.8916 118.518 56.1115C118.006 58.7842 117.237 61.4131 116.216 63.9655L115.822 64.949C112.878 72.309 105.94 77.2504 98.0925 77.6844L96.9656 77.7155C88.0648 77.7155 79.429 80.7448 72.4786 86.3051L69.4656 88.7155C61.0005 95.4876 49.4948 97.0495 39.5307 92.7791L36.4656 91.4655C24.5433 86.356 16.2267 75.3048 14.6179 62.4339L14.0378 57.8768C15.0128 52.2917 17.0086 46.8938 19.9656 41.9655C25.2665 33.1307 33.7271 26.6408 43.6337 23.8103L47.4656 22.7155C60.0768 19.1123 73.4139 18.8901 86.1381 22.0712ZM118.691 57.3961C113.476 46.6499 102.582 39.8266 90.6371 39.8266H88.8531C74.9509 39.8266 61.3544 35.7469 49.7489 28.093L46.2281 25.7711C45.2462 25.1235 44.2462 24.5123 43.2302 23.9377L43.6337 23.8103L47.4656 22.7155C53.7712 20.9139 60.2582 19.9576 66.7595 19.8492L69.1978 19.8484C74.8871 19.9391 80.5713 20.6794 86.1381 22.0712L91.293 23.3599C103.311 26.3644 112.812 35.5542 116.216 47.4655L117.647 52.4761C118.142 54.2069 118.526 55.9592 118.8 57.723L118.777 57.576C118.749 57.516 118.72 57.456 118.691 57.3961ZM33.911 59.2137C33.911 63.7701 38.8359 67.4637 44.911 67.4637C50.9861 67.4637 55.911 63.7701 55.911 59.2137C55.911 54.6574 50.9861 50.9637 44.911 50.9637C38.8359 50.9637 33.911 54.6574 33.911 59.2137Z" stroke="white" stroke-width="1.94954" stroke-linecap="square"/>
</svg>
