<svg width="132" height="132" viewBox="0 0 132 132" fill="none" xmlns="http://www.w3.org/2000/svg">
<path d="M27.5 44.0002L38.7993 45.8835C39.8119 46.0522 40.8367 46.137 41.8632 46.137C52.156 46.137 60.5 37.7931 60.5 27.5002L49.5 33.0002V16.5002L48.402 16.5272C36.7618 17.0993 27.5 26.7182 27.5 38.5002V44.0002ZM27.5 44.0002V47.5176C27.5 52.3695 29.104 57.0854 32.0623 60.9312L38.5 69.3002M35.75 71.5002H28.7984C24.6319 71.5002 20.823 73.8543 18.9597 77.5809L16.5 82.5002M31.9 88.0002H28.7984C24.6319 88.0002 20.823 90.3543 18.9597 94.0809L16.5 99.0002M46.75 104.5H39.7984C35.6319 104.5 31.823 106.854 29.9597 110.581L27.5 115.5M96.25 71.5002H103.202C107.368 71.5002 111.177 73.8543 113.04 77.5809L115.5 82.5002M100.1 88.0002H103.202C107.368 88.0002 111.177 90.3543 113.04 94.0809L115.5 99.0002M85.25 104.5H92.2016C96.3681 104.5 100.177 106.854 102.04 110.581L104.5 115.5M104.5 44.0002V47.5176C104.5 52.3695 102.896 57.0854 99.9377 60.9312L93.5 69.3002M104.5 44.0002L93.2007 45.8835C92.1881 46.0522 91.1633 46.137 90.1368 46.137C79.844 46.137 71.5 37.7931 71.5 27.5002L82.5 33.0002V16.5002L83.598 16.5272C95.2382 17.0993 104.5 26.7182 104.5 38.5002V44.0002ZM45.5973 103.525L50.1875 106.219C59.9504 111.949 72.0496 111.949 81.8125 106.219L86.4027 103.525C93.555 99.3266 98.6223 92.3251 100.375 84.219C101.797 77.6427 97.6184 71.1588 91.0421 69.7369L90.6486 69.6586L84.5625 68.7502C72.2547 66.9269 59.7453 66.9269 47.4375 68.7502L41.7472 69.5933C35.0915 70.5793 30.4954 76.7741 31.4814 83.4297C31.5206 83.6943 31.5685 83.9576 31.625 84.219C33.3777 92.3251 38.445 99.3266 45.5973 103.525Z" stroke="white" stroke-width="1.94954" stroke-linecap="round"/>
<path fill-rule="evenodd" clip-rule="evenodd" d="M57.75 58.3005V57.7505V58.3005Z" stroke="white" stroke-width="2.92431" stroke-linecap="round" stroke-linejoin="round"/>
<path fill-rule="evenodd" clip-rule="evenodd" d="M74.251 58.3005V57.7505V58.3005Z" stroke="white" stroke-width="2.92431" stroke-linecap="round" stroke-linejoin="round"/>
</svg>
