<svg width="132" height="132" viewBox="0 0 132 132" fill="none" xmlns="http://www.w3.org/2000/svg">
<path fill-rule="evenodd" clip-rule="evenodd" d="M45.9821 51.5782C71.4981 35.6629 105.085 43.4458 121 68.9618L119.743 70.8858C116.717 75.3093 113.053 79.2654 108.865 82.6235C87.4602 99.7891 57.0568 98.1577 37.604 79.9217C34.4851 87.9633 26.3918 93.3892 17.3354 92.7322L16.5 92.6541V91.2367C16.5 82.7407 20.2195 74.9802 26.2463 69.67C20.6436 65.3229 16.9538 58.6695 16.539 51.1887L16.5 49.7768V45.2695L17.64 45.3153C26.2044 45.8705 33.5372 51.1207 36.9987 58.5885C39.7285 55.9522 42.7417 53.5993 45.9821 51.5782ZM77.2049 94.5464L77.9284 94.5112C73.9189 98.5041 69.0039 101.537 63.4099 103.179C59.0637 104.455 54.6894 104.78 50.4711 104.27C52.5309 100.086 54.1285 95.6133 55.2118 90.9534C62.2233 93.6565 69.725 94.8711 77.2049 94.5464ZM82.5729 43.1127L83.1423 43.9697C72.3644 42.2937 61.0414 43.8313 50.7142 48.9395C47.5583 42.2712 43.3252 36.4583 38.3393 31.7081C40.4905 30.5122 42.7942 29.5353 45.2262 28.8213C59.58 24.6071 74.2404 30.7699 82.5729 43.1127Z" stroke="white" stroke-width="1.94954" stroke-linecap="round"/>
<path fill-rule="evenodd" clip-rule="evenodd" d="M96.25 63.8002V63.2502V63.8002Z" stroke="white" stroke-width="2.92431" stroke-linecap="round" stroke-linejoin="round"/>
</svg>
