<svg width="132" height="132" viewBox="0 0 132 132" fill="none" xmlns="http://www.w3.org/2000/svg">
<path fill-rule="evenodd" clip-rule="evenodd" d="M64.9076 48.1849C75.7073 40.2745 90.814 41.3142 100.427 50.9276L101.75 52.2498C103.832 54.3323 104.908 57.2165 104.698 60.1542C104.299 65.7486 99.4395 69.9598 93.8452 69.5602L69.2889 67.8062C69.2002 67.7998 69.1118 67.7924 69.0235 67.7838C69.2441 68.9147 69.4418 70.0588 69.625 71.2053L68.7031 75.5422C66.9326 83.9461 67.4886 92.6739 70.3112 100.785L70.7296 101.987C70.8955 102.464 71.0915 102.922 71.3147 103.359C70.5788 107.681 67.5153 111.328 63.2496 112.75C59.0303 114.156 54.4697 111.876 53.0632 107.657L52.8904 107.063L51.9044 103.119C50.4898 97.4608 48.22 92.0563 45.1768 87.0909L43.9996 85.2498C40.3789 79.8188 38.0204 73.6458 37.0973 67.1842L35.0939 53.1601C34.6373 49.964 35.0148 46.8059 36.0833 43.9332L62.6271 47.2516C63.3276 47.3392 64.0283 47.3564 64.7199 47.3065L64.9076 48.1849ZM63.2496 49.4998C58.8799 53.2452 58.3738 59.8239 62.1193 64.1936C63.9308 66.307 66.5125 67.6078 69.2889 67.8062L93.8452 69.5602C99.4395 69.9598 104.299 65.7486 104.698 60.1542C104.908 57.2165 103.832 54.3323 101.75 52.2498L100.427 50.9276C90.3112 40.8114 74.1119 40.1892 63.2496 49.4998ZM70.2707 68.1064L92.0258 69.8346C91.9313 70.6073 91.7571 71.3813 91.4986 72.1462L91.0517 73.5874C89.2765 79.8675 89.6004 86.5716 91.9982 92.6708L92.387 93.7497C94.1271 99.3709 91.4466 105.489 86.0125 107.975L85.4055 108.252C85.0977 108.393 84.7835 108.519 84.4638 108.631C78.8367 110.589 72.6877 107.615 70.7296 101.987L70.3112 100.785C67.4886 92.6739 66.9326 83.9461 68.7031 75.5422L70.2707 68.1064ZM68.945 26.5561L71.4996 29.1107C75.6684 33.2795 75.6684 40.0386 71.4996 44.2074C71.2273 44.4797 70.9421 44.7356 70.6454 44.9744C69.3083 45.5142 68.0068 46.1743 66.752 46.9455C65.43 47.3205 64.028 47.4267 62.6271 47.2516L32.7872 43.5216C26.6991 42.7606 22.3806 37.2083 23.1416 31.1202C23.5155 28.1295 25.0884 25.4191 27.4996 23.6107C40.1231 14.1431 57.7873 15.3984 68.945 26.5561Z" stroke="white" stroke-width="1.94954" stroke-linecap="round"/>
</svg>
