<svg width="132" height="132" viewBox="0 0 132 132" fill="none" xmlns="http://www.w3.org/2000/svg">
<path fill-rule="evenodd" clip-rule="evenodd" d="M66.0002 115.5C88.0002 108.167 99.0002 95.9265 99.0002 78.7794V66H33.0002V78.7794C33.0002 95.9265 44.0002 108.167 66.0002 115.5ZM41.2502 38.5L56.5111 34.1397C58.8723 33.4651 60.5002 31.307 60.5002 28.8513V22H71.5002L69.0664 26.8675C67.708 29.5843 68.8092 32.888 71.5261 34.2465C71.885 34.4259 72.2625 34.5656 72.6518 34.6629L88.0002 38.5C99.7822 41.4455 107.086 53.1121 104.748 64.8952L104.5 66H27.5002L26.8558 63.4225C24.1483 52.5927 30.5165 41.5668 41.2502 38.5Z" stroke="white" stroke-width="1.94954" stroke-linecap="square"/>
</svg>
