<svg width="132" height="132" viewBox="0 0 132 132" fill="none" xmlns="http://www.w3.org/2000/svg">
<path fill-rule="evenodd" clip-rule="evenodd" d="M19.0596 112.941L83.6603 48.3393L19.0596 112.941ZM48.9916 50.7714C57.8936 57.448 59.6977 70.0769 53.0211 78.9789C52.162 80.1244 51.184 81.1739 50.1044 82.1104L48.9916 83.0085C40.0895 76.3319 38.2855 63.7029 44.962 54.8009C45.8212 53.6554 46.7991 52.6059 47.8787 51.6695L48.9916 50.7714ZM65.11 34.6528C74.012 41.3294 75.8161 53.9584 69.1395 62.8604C68.2804 64.0059 67.3024 65.0554 66.2228 65.9918L65.11 66.8899C56.2079 60.2133 54.4039 47.5844 61.0804 38.6824C61.9395 37.5369 62.9175 36.4874 63.9971 35.5509L65.11 34.6528ZM81.2284 18.5343C90.1304 25.2109 91.9345 37.8398 85.2579 46.7419C84.3988 47.8873 83.4208 48.9369 82.3412 49.8733L81.2284 50.7714C72.3263 44.0948 70.5222 31.4659 77.1988 22.5638C78.0579 21.4184 79.0359 20.3688 80.1155 19.4324L81.2284 18.5343ZM113.465 50.7714C106.789 59.6733 94.16 61.4775 85.2581 54.8011C84.1125 53.9419 83.0629 52.964 82.1265 51.8843L81.2284 50.7714C87.9048 41.8694 100.533 40.0653 109.435 46.7417C110.581 47.6008 111.631 48.5788 112.567 49.6585L113.465 50.7714ZM97.3467 66.8899C90.6703 75.7919 78.0416 77.596 69.1397 70.9196C67.9941 70.0605 66.9445 69.0825 66.0081 68.0028L65.11 66.8899C71.7864 57.988 84.4151 56.1838 93.317 62.8602C94.4626 63.7194 95.5122 64.6973 96.4486 65.777L97.3467 66.8899ZM81.2284 83.0085C74.552 91.9104 61.9232 93.7145 53.0213 87.0382C51.8757 86.179 50.8262 85.201 49.8897 84.1214L48.9916 83.0085C55.668 74.1065 68.2967 72.3023 77.1986 78.9787C78.3442 79.8379 79.3938 80.8159 80.3302 81.8955L81.2284 83.0085ZM32.4916 67.2714C41.3936 73.948 43.1977 86.5769 36.5211 95.4789C35.662 96.6244 34.684 97.6739 33.6044 98.6104L32.4916 99.5085C23.5895 92.8319 21.7855 80.2029 28.462 71.3009C29.3211 70.1554 30.2991 69.1059 31.3787 68.1695L32.4916 67.2714ZM64.7284 99.5085C58.052 108.41 45.4232 110.215 36.5213 103.538C35.3757 102.679 34.3261 101.701 33.3897 100.621L32.4916 99.5085C39.168 90.6065 51.7967 88.8023 60.6986 95.4787C61.8442 96.3379 62.8938 97.3159 63.8302 98.3955L64.7284 99.5085ZM114.057 17.9464C115.631 28.9622 107.976 39.1678 96.9608 40.7415C95.5433 40.9439 94.1096 40.9946 92.684 40.8933L91.262 40.7412C89.6884 29.7256 97.3426 19.52 108.358 17.9464C110.248 17.6764 112.167 17.6764 114.057 17.9464Z" stroke="white" stroke-width="1.94954" stroke-linecap="round"/>
</svg>
