<svg id="Layer_1" data-name="Layer 1" xmlns="http://www.w3.org/2000/svg" xmlns:xlink="http://www.w3.org/1999/xlink" viewBox="0 0 56 56.09"><defs><style>.cls-1{fill-rule:evenodd;fill:url(#linear-gradient);}</style><linearGradient id="linear-gradient" x1="48.68" y1="53.82" x2="6.38" y2="5.01" gradientTransform="matrix(1, 0, 0, -1, 0, 58)" gradientUnits="userSpaceOnUse"><stop offset="0.17" stop-color="#4967d5"/><stop offset="0.69" stop-color="#db2e7d"/><stop offset="1" stop-color="#ffaf00"/></linearGradient></defs><path class="cls-1" d="M51.29,4.7a14.33,14.33,0,0,1,3.23,5,20.54,20.54,0,0,1,1.31,6.89c.17,3,.17,3.94.17,11.54s0,8.55-.17,11.54a20.57,20.57,0,0,1-1.31,6.8,14.34,14.34,0,0,1-8.19,8.18,20.47,20.47,0,0,1-6.79,1.31c-3,.17-3.95.17-11.54.17s-8.54,0-11.54-.17a20.52,20.52,0,0,1-6.79-1.4,14.32,14.32,0,0,1-8.19-8.19,20.52,20.52,0,0,1-1.31-6.8C0,36.55,0,35.59,0,28s0-8.54.17-11.53a20.48,20.48,0,0,1,1.31-6.8A14.32,14.32,0,0,1,9.67,1.47,20.16,20.16,0,0,1,16.46.17C19.43,0,20.4,0,28,0s8.55,0,11.54.17a20.82,20.82,0,0,1,6.8,1.3A14.33,14.33,0,0,1,51.29,4.7ZM49.76,44.55a15.69,15.69,0,0,0,1-5.25h0c.14-3,.14-3.78.14-11.36h0c0-7.58,0-8.41-.17-11.37a15.9,15.9,0,0,0-1-5.19,9.4,9.4,0,0,0-2.1-3.22,9.21,9.21,0,0,0-3.22-2.1,15.61,15.61,0,0,0-5.2-1c-3-.17-3.78-.17-11.36-.17s-8.41,0-11.36.17a15.8,15.8,0,0,0-5.19,1A9.29,9.29,0,0,0,6,11.38a15.74,15.74,0,0,0-1,5.25c-.16,3-.16,3.79-.16,11.37s0,8.41.16,11.36a15.85,15.85,0,0,0,1,5.19,9.37,9.37,0,0,0,2.11,3.23,9.26,9.26,0,0,0,3.24,2.09,15.3,15.3,0,0,0,5.19,1c3,.17,3.78.17,11.36.17s8.41,0,11.36-.17a15.61,15.61,0,0,0,5.2-1,9.33,9.33,0,0,0,5.32-5.32ZM42.93,16.42a3.36,3.36,0,1,0-3.36-3.35A3.35,3.35,0,0,0,42.93,16.42ZM28,13.6a14.37,14.37,0,1,0,10.17,4.21A14.36,14.36,0,0,0,28,13.6Zm0,23.71a9.34,9.34,0,1,1,6.6-2.73A9.35,9.35,0,0,1,28,37.31Z"/></svg>