<svg id="Layer_1" data-name="Layer 1" xmlns="http://www.w3.org/2000/svg" xmlns:xlink="http://www.w3.org/1999/xlink" viewBox="0 0 44 56"><defs><style>.cls-1{fill:url(#linear-gradient);}</style><linearGradient id="linear-gradient" x1="47.25" y1="50.7" x2="-4.24" y2="20.02" gradientTransform="matrix(1, 0, 0, -1, 0, 58)" gradientUnits="userSpaceOnUse"><stop offset="0" stop-color="#e90018"/><stop offset="1" stop-color="#e9007e"/></linearGradient></defs><path class="cls-1" d="M18.09,37c-1.49,7.71-3.3,15.1-8.68,19-1.65-11.65,2.44-20.4,4.34-29.69C10.51,20.9,14.14,10,21,12.71c8.41,3.3-7.29,20.08,3.25,22.18,11,2.19,15.49-18.9,8.67-25.75C23-.77,4.21,8.91,6.52,23.09c.57,3.46,4.18,4.51,1.45,9.3C1.66,31-.22,26.08,0,19.51.41,8.76,9.77,1.23,19.17.19c11.88-1.32,23,4.32,24.57,15.38,1.74,12.49-5.36,26-18.07,25C22.23,40.35,20.79,38.66,18.09,37Z" transform="translate(0 0)"/></svg>