<svg xmlns="http://www.w3.org/2000/svg" viewBox="0 0 680.2 372.5"><defs><style>.cls-1{fill:#fff;}</style></defs><g id="Layer_2" data-name="Layer 2"><g id="Layer_1-2" data-name="Layer 1"><g id="Layer_2-2" data-name="Layer 2"><g id="Layer_1-2-2" data-name="Layer 1-2"><g id="Layer_2-2-2" data-name="Layer 2-2"><g id="Layer_1-2-2-2" data-name="Layer 1-2-2"><path class="cls-1" d="M21.6,168.1l9.5,8.5H.5l9.5-8.5V8.9L0,.9H37.1L69,99.5,96.1.9h37.7l-11,8V168l10.5,8.5H84.4L94.7,168V52.4L61.5,177.6,21.6,47.6Z"/><path class="cls-1" d="M205.1.9l26.1,167.2,10.3,8.5H192.3l10.5-8.5-4.5-29.4H170.9l-4.5,29.4,9.5,8.5H145.5l9.5-8.5L179.5,9.4,177,.9ZM172.7,127.2h23.8L184.2,48.4Z"/><path class="cls-1" d="M434.3,120.9l-16.1-5.3c-11.8,37.4-46.2,61.7-85.3,61.7-49.9,0-88.1-40.2-88.1-88.4C244.8,39.5,285.7,0,333.4,0c40.7,0,75.8,27.4,86.1,67H403.9c-1.3-29.4-22.1-48.4-51.5-48.4-44.9,0-89.4,44.7-89.4,89.6,0,29.9,21.1,51.2,50.7,51.2,30.6,0,59.2-18.8,77.1-46.4H368.5V102h65.8Z"/><path class="cls-1" d="M487.7,176.6H439l10.3-8.5V9.4L439,.9h48.7L477.4,9.4V168Z"/><path class="cls-1" d="M676.4,103.3a88.61,88.61,0,0,1-88.1,74c-48.7,0-88.1-39.9-88.1-88.9C500.2,40,539.9,0,588.8,0c40.7,0,75.6,27.4,85.8,67H659.3c-1.3-28.9-22.6-48.4-51.2-48.4C562.9,18.6,518,63,518,108.5c0,30.1,21.6,51,52,51,33.4,0,67-25.1,81.3-56.2Z"/><path class="cls-1" d="M177.5,298.3a88.61,88.61,0,0,1-88.1,74c-48.7,0-88.1-39.9-88.1-88.9C1.3,235,41,195,89.9,195c40.7,0,75.6,27.4,85.8,67H160.4c-1.3-28.9-22.6-48.4-51.2-48.4-45.2,0-90.1,44.4-90.1,89.9,0,30.1,21.6,51,52,51,33.4,0,67-25.1,81.3-56.2Z"/><path class="cls-1" d="M275.7,195.9,261.6,209V337c0,19.8-15.8,35.4-36.6,35.4-20.3,0-36.6-15.6-36.6-35.1V204.5l-9.5-8.5h47.2l-9.5,8.5v132a16.75,16.75,0,0,0,16.7,16.8h.1c9,0,16.8-5.8,16.8-17.1V209L236,195.9Z"/><path class="cls-1" d="M331.6,371.6H282.9l10.3-8.5V204.5L282.9,196h48.7l-10.3,8.5V363.1Z"/><path class="cls-1" d="M339.9,242.4c0-28.4,18.3-47.2,45.7-47.2,10.5,0,20.6,3.5,27.9,6.3l10.3-6.3v57.2c-21.6-41.4-30.4-47.9-44.2-47.9-11.5,0-19.8,8-19.8,21.1,0,15.1,19.1,26.4,36.4,40.2,18.1,14.6,34.6,27.6,34.6,59,0,31.1-21.8,47.7-44.9,47.7a72,72,0,0,1-35.4-9.3L340,372.5V308.7c12,26.4,31.9,51.7,51.2,51.7,11,0,20.1-8.3,20.1-22.8,0-15.6-10.5-22.6-27.9-35.9C369,291.1,339.9,271.5,339.9,242.4Z"/><path class="cls-1" d="M481.7,371.6H433l10.3-8.5V204.5L433,196h48.7l-10.3,8.5V363.1Z"/><path class="cls-1" d="M565.3,195.9H606L591.4,209V372.4l-70-133.3V358.6L536,371.7H495.3l14.6-13.1V223l-17.2-27.1h36.6l50.5,93.6V208.9Z"/><path class="cls-1" d="M614.2,195.9h66v36.6l-11.3-25.1H652.3v68.5h5.8l10.5-23.6v58.2l-10.3-23.1h-6v72.5h16.6l11.3-25.1v36.6h-66l10-8.5V204.5Z"/></g></g></g></g></g></g></svg>